<?xml version="1.0" encoding="utf-8"?>
<!-- Generator: Adobe Illustrator 16.0.0, SVG Export Plug-In . SVG Version: 6.00 Build 0)  -->
<!DOCTYPE svg PUBLIC "-//W3C//DTD SVG 1.1//EN" "http://www.w3.org/Graphics/SVG/1.1/DTD/svg11.dtd">
<svg version="1.1" id="Capa_1" xmlns="http://www.w3.org/2000/svg" xmlns:xlink="http://www.w3.org/1999/xlink" x="0px" y="0px"
	 width="40px" height="40px" viewBox="0 0 40 40" enable-background="new 0 0 40 40" xml:space="preserve">
<g>
	<path fill="#FFFFFF" d="M40,20C40,8.951,31.049,0,20,0C8.959,0,0,8.951,0,20s8.959,20,20,20C31.049,40,40,31.049,40,20z"/>
	<g>
		<g>
			<g id="XMLID_104_">
				<path id="XMLID_130_" fill="#51B7A6" d="M31.33,28.81c0,1.595-1.297,2.896-2.894,2.896H11.858v-6.358H31.33V28.81z"/>
				<path id="XMLID_128_" fill="#51B7A6" d="M11.858,8.251h16.579c1.597,0,2.894,1.306,2.894,2.901v3.457H11.858V8.251z"/>
				<rect id="XMLID_127_" x="11.858" y="14.609" fill="#9FFFD3" width="19.472" height="10.737"/>
				<rect id="XMLID_125_" x="12.507" y="8.251" fill="#CF2E56" width="1.541" height="23.454"/>
				<rect id="XMLID_123_" x="10.02" y="8.251" fill="#15344D" width="1.819" height="23.454"/>
				<polygon id="XMLID_105_" fill="#CF2E56" points="14.435,31.705 19.046,31.705 19.046,34.443 16.74,33.935 14.435,34.443 				"/>
			</g>
			<g>
				<path fill="#15344D" d="M15.513,17.986h1.535c1.138,0,1.628,0.825,1.628,1.842c0,1.02-0.49,1.846-1.628,1.846h-1.535V17.986z
					 M16.158,21.152h0.641c1.014,0,1.231-0.582,1.231-1.324c0-0.74-0.218-1.314-1.231-1.314h-0.641V21.152z"/>
				<path fill="#15344D" d="M19.511,17.986h1.77c0.797,0,1.217,0.371,1.217,0.998c0,0.714-0.498,0.885-0.615,0.926v0.007
					c0.227,0.035,0.547,0.211,0.547,0.782c0,0.429,0.068,0.836,0.202,0.975h-0.686c-0.104-0.16-0.104-0.36-0.104-0.546
					c0-0.673-0.132-0.977-0.731-0.977h-0.953v1.522h-0.646V17.986z M20.156,19.666h1.06c0.415,0,0.629-0.205,0.629-0.595
					c0-0.47-0.31-0.558-0.637-0.558h-1.052V19.666z"/>
				<path fill="#15344D" d="M23.369,20.973h0.728v0.701h-0.728V20.973z"/>
			</g>
		</g>
	</g>
</g>
</svg>
