<?xml version="1.0" encoding="utf-8"?>
<!-- Generator: Adobe Illustrator 16.0.0, SVG Export Plug-In . SVG Version: 6.00 Build 0)  -->
<!DOCTYPE svg PUBLIC "-//W3C//DTD SVG 1.1//EN" "http://www.w3.org/Graphics/SVG/1.1/DTD/svg11.dtd">
<svg version="1.1" id="Capa_1" xmlns="http://www.w3.org/2000/svg" xmlns:xlink="http://www.w3.org/1999/xlink" x="0px" y="0px"
	 width="40px" height="40px" viewBox="0 0 40 40" enable-background="new 0 0 40 40" xml:space="preserve">
<g>
	<g>
		<g>
			<path id="XMLID_88_" fill="#0091DA" d="M20.002-0.001C31.046-0.001,40,8.955,40,20.001c0,11.044-8.954,20-19.998,20
				C8.954,40.001,0,31.045,0,20.001C0,8.955,8.954-0.001,20.002-0.001z"/>
		</g>
		<g>
			<defs>
				<path id="SVGID_1_" d="M20.002-0.001C31.046-0.001,40,8.955,40,20.001c0,11.044-8.954,20-19.998,20
					C8.954,40.001,0,31.045,0,20.001C0,8.955,8.954-0.001,20.002-0.001z"/>
			</defs>
			<clipPath id="SVGID_2_">
				<use xlink:href="#SVGID_1_"  overflow="visible"/>
			</clipPath>
		</g>
		<g>
			<defs>
				<path id="SVGID_3_" d="M20.002-0.001C31.046-0.001,40,8.955,40,20.001c0,11.044-8.954,20-19.998,20
					C8.954,40.001,0,31.045,0,20.001C0,8.955,8.954-0.001,20.002-0.001z"/>
			</defs>
			<clipPath id="SVGID_4_">
				<use xlink:href="#SVGID_3_"  overflow="visible"/>
			</clipPath>
		</g>
		<g>
			<defs>
				<path id="SVGID_5_" d="M20.002-0.001C31.046-0.001,40,8.955,40,20.001c0,11.044-8.954,20-19.998,20
					C8.954,40.001,0,31.045,0,20.001C0,8.955,8.954-0.001,20.002-0.001z"/>
			</defs>
			<clipPath id="SVGID_6_">
				<use xlink:href="#SVGID_5_"  overflow="visible"/>
			</clipPath>
			<path clip-path="url(#SVGID_6_)" fill="#0071BC" d="M34.113,17.749l-6.309-5.136c0.275,0.058-1.677,5.775-1.408,5.844
				c1.187,0.099,2.038,0.649,2.552,1.648c-0.168,0.355-0.335,0.714-0.503,1.071c-0.479,0.741-1.095,1.306-1.773,1.861
				c-2.134,1.743-5.028,2.487-7.639,3.119c-2.597,0.627-5.246,1.083-7.908,1.392l-2.681,1.555L24.87,48.383L45.805,34.95
				L34.113,17.749z"/>
		</g>
		<g>
			<path id="XMLID_87_" fill="none" d="M20.002-0.001C31.046-0.001,40,8.955,40,20.001c0,11.044-8.954,20-19.998,20
				C8.954,40.001,0,31.045,0,20.001C0,8.955,8.954-0.001,20.002-0.001z"/>
		</g>
	</g>
	<g>
		<path fill="#FFFFFF" d="M24.384,25.514c1.875-0.829,3.346-1.943,4.413-3.334c1.069-1.395,1.586-2.898,1.557-4.517
			c-0.03-1.616-0.602-3.102-1.723-4.453c-1.119-1.351-2.631-2.41-4.535-3.17c-1.906-0.764-3.969-1.125-6.192-1.083
			c-2.223,0.041-4.269,0.48-6.146,1.311c-1.875,0.833-3.349,1.945-4.415,3.338c-1.067,1.394-1.587,2.898-1.556,4.514
			c0.024,1.385,0.462,2.68,1.313,3.887c0.849,1.206,2.001,2.214,3.459,3.023c-0.112,0.284-0.225,0.541-0.344,0.776
			c-0.117,0.234-0.258,0.46-0.424,0.679C9.629,26.703,9.499,26.876,9.409,27c-0.091,0.124-0.238,0.298-0.447,0.522
			c-0.203,0.224-0.335,0.373-0.392,0.443c0.002-0.012-0.024,0.016-0.068,0.08c-0.044,0.065-0.071,0.094-0.071,0.094
			c-0.011-0.01-0.033,0.019-0.072,0.083c-0.041,0.064-0.062,0.098-0.062,0.098l-0.04,0.089c-0.019,0.034-0.028,0.069-0.034,0.105
			c-0.006,0.035-0.008,0.07-0.006,0.113c0,0.042,0.008,0.079,0.019,0.114c0.025,0.147,0.095,0.269,0.207,0.361
			c0.112,0.089,0.23,0.135,0.359,0.133l0.053-0.002c0.581-0.093,1.08-0.195,1.496-0.308c1.782-0.498,3.386-1.273,4.809-2.323
			c1.05,0.168,2.073,0.243,3.076,0.222C20.458,26.784,22.509,26.348,24.384,25.514z"/>
		<path fill="#FFFFFF" d="M34.309,24.911c0.728-1.111,1.078-2.298,1.054-3.559c-0.022-1.293-0.439-2.494-1.249-3.603
			c-0.81-1.113-1.9-2.027-3.269-2.747c0.257,0.782,0.394,1.581,0.406,2.387c0.028,1.411-0.299,2.751-0.98,4.026
			c-0.68,1.276-1.67,2.408-2.965,3.397c-1.202,0.906-2.578,1.61-4.124,2.115c-1.547,0.5-3.167,0.767-4.859,0.799
			c-0.315,0.006-0.777-0.009-1.39-0.04c2.14,1.348,4.633,1.999,7.482,1.946c0.903-0.018,1.826-0.122,2.77-0.306
			c1.32,0.899,2.794,1.547,4.42,1.934c0.381,0.089,0.835,0.167,1.362,0.228c0.127,0.01,0.242-0.029,0.343-0.116
			c0.106-0.084,0.171-0.202,0.2-0.349c-0.006-0.063-0.002-0.099,0.013-0.104c0.014-0.004,0.016-0.04-0.01-0.102
			c-0.022-0.062-0.033-0.094-0.033-0.094l-0.04-0.078c-0.013-0.02-0.028-0.049-0.057-0.086c-0.028-0.035-0.049-0.062-0.063-0.076
			c-0.016-0.018-0.041-0.041-0.072-0.08c-0.036-0.035-0.057-0.056-0.067-0.069c-0.053-0.061-0.175-0.189-0.367-0.388
			c-0.195-0.195-0.333-0.346-0.42-0.456c-0.086-0.109-0.208-0.256-0.363-0.452c-0.156-0.191-0.29-0.39-0.405-0.599
			c-0.114-0.207-0.229-0.437-0.337-0.688C32.577,26.972,33.584,26.026,34.309,24.911z"/>
	</g>
</g>
</svg>
