<?xml version="1.0" encoding="utf-8"?>
<!-- Generator: Adobe Illustrator 16.0.0, SVG Export Plug-In . SVG Version: 6.00 Build 0)  -->
<!DOCTYPE svg PUBLIC "-//W3C//DTD SVG 1.1//EN" "http://www.w3.org/Graphics/SVG/1.1/DTD/svg11.dtd">
<svg version="1.1" id="Capa_1" xmlns="http://www.w3.org/2000/svg" xmlns:xlink="http://www.w3.org/1999/xlink" x="0px" y="0px"
	 width="40px" height="40px" viewBox="0 0 40 40" enable-background="new 0 0 40 40" xml:space="preserve">
<g>
	<path fill="#0093C8" d="M40,20.001C40,8.959,31.051,0,20.001,0C8.95,0,0,8.959,0,20.001C0,31.049,8.95,40,20.001,40
		C31.051,40,40,31.049,40,20.001z"/>
	<g>
		<path fill="#FFFFFF" d="M31.878,9.584c0.313,0,0.576-0.264,0.576-0.577h-0.195c0,0.21-0.18,0.383-0.381,0.383h-2V8.613h-0.585
			V9.38h-1.451c-0.06-0.122-0.137-0.198-0.226-0.198c-0.088,0-0.165,0.076-0.225,0.198h-0.124c-0.202,0-0.363-0.162-0.363-0.372
			h-0.196c0,0.313,0.246,0.577,0.56,0.577h0.086c-0.002,0.023-0.002,0.046-0.002,0.078c0,0.029,0,0.064,0.002,0.101h-0.33
			c-0.237,0-0.433,0.195-0.433,0.433v2.098c0,0.243,0.195,0.438,0.433,0.438h0.124v0.591h0.044
			c-0.077,1.832-0.826,2.617-2.771,2.893c-0.284,0.043-0.665,0.037-1.058,0.035c-0.745-0.01-1.598-0.03-2.118,0.31
			c-0.461,0.278-0.59,0.702-0.732,1.103c-0.111,0.34-0.204,0.653-0.476,0.894c-0.151,0.145-0.313,0.23-0.5,0.301
			c-3.321-0.374-3.323-0.374-3.323-0.374v0.234c-2.176,0.421-3.268-0.591-3.323-0.639c-0.288-0.298-0.758-0.301-1.049-0.021
			c-0.295,0.299-0.296,0.77-0.007,1.054c0.058,0.067,1.199,1.202,3.371,1.202c0.313,0,0.652-0.033,1.008-0.081v0.325
			c-0.344,0.064-0.678,0.098-1.015,0.098c-2.193,0-3.362-1.126-3.484-1.249c-0.115-0.118-0.193-0.264-0.246-0.417
			c-0.004-0.008-0.006-0.034-0.008-0.042c-0.015-0.04-0.02-0.081-0.031-0.124c-0.003-0.006-0.005-0.029-0.005-0.036
			c-0.001-0.027,0-0.037-0.001-0.047c0-0.03-0.012-0.058-0.012-0.07c0-0.007,0.011-0.029,0.012-0.038
			c0-0.035,0.003-0.071,0.006-0.107c0.013-0.019,0.015-0.057,0.019-0.093c0.013-0.027,0.015-0.037,0.019-0.064
			c0.055-0.16,0.135-0.31,0.256-0.429c0.194-0.176,0.449-0.287,0.722-0.287c0.274,0,0.529,0.111,0.725,0.309
			c0.029,0.012,0.684,0.635,2.026,0.635c0.036,0,0.068-0.003,0.104-0.003c-1.172-0.396-2.405-1.061-2.405-1.061
			c-0.555-0.371-1.251-0.113-1.649,0.273c0,0-0.146,0.119-0.232,0.272c-0.095,0.136-0.168,0.325-0.168,0.325l-0.001,0.002
			c-0.136,0.39-0.138,0.893,0.095,1.278c0,0,0.154,0.23,0.346,0.353c0,0,2.66,1.836,4.339,1.884
			c0.199,0.004,0.396,0.004,0.591,0.023v0.324h-1.442l-5.302-2.82c0.067-0.032,0.14-0.078,0.179-0.156
			c0.081-0.159,0.02-0.375-0.14-0.456L7.676,17.89c-0.158-0.082-0.356-0.027-0.446,0.147c-0.037,0.055-0.039,0.131-0.024,0.201
			L6.97,18.116c-0.406-0.216-0.896-0.039-1.095,0.357c-0.208,0.4-0.039,0.897,0.358,1.097l7.286,3.899H8.206
			c-0.272,0-0.49,0.211-0.49,0.48v0.273c0,0.271,0.218,0.497,0.49,0.497h1.721c-0.002,0.039-0.003,0.077-0.003,0.112v4.184
			c-0.173,0.126-0.276,0.326-0.276,0.56c0,0.418,0.33,0.738,0.738,0.738c0.4,0,0.731-0.32,0.731-0.738
			c0-0.199-0.082-0.386-0.216-0.515v-0.926h14.802v0.858c-0.166,0.146-0.28,0.347-0.28,0.582c0,0.418,0.322,0.738,0.738,0.738
			c0.399,0,0.724-0.32,0.724-0.738c0-0.197-0.08-0.365-0.204-0.508v-4.235c0-0.531-0.399-0.958-0.91-0.994
			c0.313-0.098,0.525-0.401,0.525-0.754c0-0.433-0.328-0.784-0.759-0.815c0.172-1.021-0.098-2.773-3.868-3.177
			c-0.622-0.073-1.168-0.141-1.664-0.189c0.073-0.041,0.145-0.105,0.198-0.155c0.334-0.282,0.451-0.656,0.549-1.008
			c0.139-0.366,0.255-0.737,0.619-0.971c0.468-0.287,1.282-0.277,1.988-0.257c0.399,0.006,0.787,0.008,1.098-0.035
			c2.072-0.302,2.896-1.192,2.975-3.154h0.039v-0.591h0.296v0.264h0.323v-0.264h0.12c0.237,0,0.433-0.195,0.433-0.438v-2.098
			c0-0.238-0.195-0.433-0.433-0.433h-0.33c0.002-0.036,0.002-0.072,0.002-0.101c0-0.032,0-0.055-0.002-0.078h1.413l-0.002,18.702
			h-0.35c-0.62,0-1.14,0.387-1.364,0.931c-0.231,0.074-0.396,0.28-0.396,0.541c0,0.313,0.243,0.557,0.555,0.557
			c0.313,0,0.574-0.243,0.574-0.557c0-0.151-0.067-0.297-0.153-0.387c0.13-0.301,0.436-0.501,0.784-0.501h1.321
			c0.332,0,0.637,0.2,0.784,0.501c-0.104,0.09-0.153,0.235-0.153,0.387c0,0.313,0.243,0.557,0.555,0.557
			c0.313,0,0.575-0.243,0.575-0.557c0-0.261-0.182-0.467-0.413-0.541c-0.208-0.544-0.744-0.931-1.348-0.931h-0.387l0.002-18.702
			H31.878z M25.703,24.833v2.662H10.901v-2.662H25.703z M27.549,9.584h0.136c0.002,0.023,0.004,0.044,0.004,0.078
			c0,0.029-0.002,0.064-0.004,0.101h-0.116c-0.021-0.036-0.023-0.072-0.023-0.101C27.545,9.628,27.549,9.607,27.549,9.584z
			 M28.077,11.327c0,0.258-0.219,0.457-0.465,0.457c-0.261,0-0.463-0.199-0.463-0.457c0-0.255,0.463-0.973,0.463-0.973
			S28.077,11.072,28.077,11.327z"/>
		<path fill="#FFFFFF" d="M9.651,15.313c0.897,0,1.622,0.732,1.622,1.631c0,0.896-0.725,1.614-1.622,1.614s-1.622-0.718-1.622-1.614
			C8.029,16.046,8.754,15.313,9.651,15.313z"/>
	</g>
</g>
</svg>
