<?xml version="1.0" encoding="utf-8"?>
<!-- Generator: Adobe Illustrator 16.0.0, SVG Export Plug-In . SVG Version: 6.00 Build 0)  -->
<!DOCTYPE svg PUBLIC "-//W3C//DTD SVG 1.1//EN" "http://www.w3.org/Graphics/SVG/1.1/DTD/svg11.dtd">
<svg version="1.1" id="Capa_1" xmlns="http://www.w3.org/2000/svg" xmlns:xlink="http://www.w3.org/1999/xlink" x="0px" y="0px"
	 width="63.5px" height="101.5px" viewBox="0 0 63.5 101.5" enable-background="new 0 0 63.5 101.5" xml:space="preserve">
<g>
	<path fill="#FF1D25" d="M31.101,101.5h1.318c0.426-1.755,2.252-4.956,3.115-6.615l10-20.453c4.6-9.137,8.875-18.179,13.395-27.236
		c5.236-10.443,6.16-20.681-0.018-31.326c-4.869-8.421-15.025-15.48-25.148-15.48c-7.556,0-12.758,0.726-19.005,4.867
		c-4.207,2.776-7.243,5.838-9.975,10.325c-6.396,10.61-5.508,20.925-0.166,31.614C5.41,48.741,30.621,99.422,31.101,101.5z"/>
	<path fill="#C1272D" d="M31.458,101.5h0.96c0.426-1.755,2.252-4.956,3.115-6.615l10-20.453c4.6-9.137,8.875-18.179,13.395-27.236
		c5.236-10.443,6.16-20.681-0.018-31.326c-4.869-8.421-15.025-15.48-25.148-15.48c-0.795,0-1.57,0-2.304,0.026
		C31.458,39.23,31.458,34.822,31.458,101.5z"/>
	<path fill="#E1E5E6" d="M31.754,11.062c10.386,0,18.798,8.421,18.798,18.82c0,10.385-8.412,18.807-18.798,18.807
		c-10.392,0-18.813-8.422-18.813-18.807C12.941,19.483,21.362,11.062,31.754,11.062z"/>
	<path fill="#CCCCCC" d="M31.458,11.094v37.595h0.295c10.386,0,18.798-8.422,18.798-18.807c0-10.383-8.412-18.803-18.798-18.803
		h-0.295V11.094z"/>
	<path fill="#E84F4F" d="M31.754,23.017c3.78,0,6.843,3.063,6.843,6.865c0,3.762-3.055,6.851-6.843,6.851
		c-3.777,0-6.857-3.045-6.857-6.851C24.897,26.104,27.959,23.017,31.754,23.017z"/>
	<path fill="#C94545" d="M31.458,23.051v13.665h0.295c3.78,0,6.843-3.028,6.843-6.834c0-3.778-3.055-6.865-6.843-6.865h-0.295
		V23.051z"/>
</g>
</svg>
