<?xml version="1.0" encoding="utf-8"?>
<!-- Generator: Adobe Illustrator 16.0.0, SVG Export Plug-In . SVG Version: 6.00 Build 0)  -->
<!DOCTYPE svg PUBLIC "-//W3C//DTD SVG 1.1//EN" "http://www.w3.org/Graphics/SVG/1.1/DTD/svg11.dtd">
<svg version="1.1" id="Capa_1" xmlns="http://www.w3.org/2000/svg" xmlns:xlink="http://www.w3.org/1999/xlink" x="0px" y="0px"
	 width="36px" height="58px" viewBox="0 0 36 58" enable-background="new 0 0 36 58" xml:space="preserve">
<g>
	<path fill="#00CC96" d="M17.638,58.066h0.733c0.238-0.977,1.254-2.759,1.733-3.682l5.562-11.378
		c2.56-5.083,4.94-10.113,7.453-15.151c2.913-5.811,3.429-11.505-0.011-17.429c-2.709-4.685-8.358-8.612-13.99-8.612
		c-4.204,0-7.098,0.402-10.572,2.708c-2.341,1.544-4.029,3.249-5.549,5.745c-3.559,5.902-3.064,11.641-0.092,17.588
		C3.347,28.714,17.371,56.91,17.638,58.066z"/>
	<path fill="#07B587" d="M17.838,58.066h0.533c0.238-0.977,1.254-2.759,1.733-3.682l5.562-11.378
		c2.56-5.083,4.94-10.113,7.453-15.151c2.913-5.811,3.429-11.505-0.011-17.429c-2.709-4.685-8.358-8.612-13.99-8.612
		c-0.442,0-0.873,0-1.28,0.014C17.838,23.422,17.838,20.97,17.838,58.066z"/>
	<path fill="#E1E5E6" d="M18.002,7.752c5.778,0,10.457,4.686,10.457,10.471c0,5.777-4.679,10.461-10.457,10.461
		c-5.78,0-10.466-4.684-10.466-10.461C7.536,12.438,12.222,7.752,18.002,7.752z"/>
	<path fill="#CCCCCC" d="M17.838,7.771v20.912h0.164c5.778,0,10.457-4.684,10.457-10.461c0-5.776-4.679-10.461-10.457-10.461h-0.164
		V7.771z"/>
	<path fill="#E84F4F" d="M18.002,14.403c2.103,0,3.808,1.704,3.808,3.819c0,2.093-1.698,3.812-3.808,3.812
		c-2.102,0-3.813-1.694-3.813-3.812C14.188,16.12,15.891,14.403,18.002,14.403z"/>
	<path fill="#C94545" d="M17.838,14.422v7.603h0.164c2.103,0,3.808-1.685,3.808-3.802c0-2.103-1.698-3.819-3.808-3.819h-0.164
		V14.422z"/>
</g>
</svg>
