<?xml version="1.0" encoding="utf-8"?>
<!-- Generator: Adobe Illustrator 16.0.0, SVG Export Plug-In . SVG Version: 6.00 Build 0)  -->
<!DOCTYPE svg PUBLIC "-//W3C//DTD SVG 1.1//EN" "http://www.w3.org/Graphics/SVG/1.1/DTD/svg11.dtd">
<svg version="1.1" id="Capa_1" xmlns="http://www.w3.org/2000/svg" xmlns:xlink="http://www.w3.org/1999/xlink" x="0px" y="0px"
	 width="40px" height="40px" viewBox="0 0 40 40" enable-background="new 0 0 40 40" xml:space="preserve">
<g>
	<g>
		<g>
			<path fill="#FFFFFF" d="M19.896,20.675c0.03,0,0.06,0,0.095,0c0.012,0,0.024,0,0.036,0c0.018,0,0.042,0,0.06,0
				c1.735-0.031,3.139-0.641,4.176-1.808c2.28-2.571,1.901-6.978,1.859-7.398C25.974,8.311,24.48,6.8,23.248,6.095
				c-0.918-0.527-1.99-0.811-3.187-0.834h-0.041c-0.006,0-0.018,0-0.023,0h-0.035c-0.658,0-1.95,0.106-3.188,0.811
				c-1.244,0.706-2.76,2.216-2.909,5.397c-0.042,0.42-0.42,4.827,1.86,7.398C16.757,20.034,18.16,20.644,19.896,20.675z
				 M15.447,11.616c0-0.018,0.006-0.035,0.006-0.047c0.196-4.249,3.21-4.704,4.502-4.704h0.024c0.011,0,0.029,0,0.047,0
				c1.599,0.036,4.318,0.688,4.502,4.704c0,0.017,0,0.035,0.005,0.047c0.007,0.041,0.422,4.07-1.462,6.19
				c-0.747,0.842-1.741,1.256-3.051,1.269c-0.012,0-0.018,0-0.03,0l0,0c-0.011,0-0.018,0-0.029,0
				c-1.304-0.012-2.305-0.427-3.046-1.269C15.038,15.697,15.441,11.652,15.447,11.616z"/>
			<path fill="#FFFFFF" d="M32.164,27.983c0-0.006,0-0.012,0-0.018c0-0.048-0.006-0.095-0.006-0.148
				c-0.036-1.173-0.113-3.915-2.684-4.792c-0.018-0.006-0.042-0.012-0.06-0.018c-2.672-0.681-4.893-2.222-4.917-2.24
				c-0.36-0.254-0.858-0.166-1.112,0.196c-0.255,0.361-0.166,0.859,0.194,1.113c0.102,0.071,2.459,1.712,5.408,2.471
				c1.38,0.491,1.535,1.967,1.577,3.317c0,0.053,0,0.101,0.005,0.148c0.006,0.532-0.029,1.355-0.124,1.83
				c-0.96,0.545-4.721,2.429-10.443,2.429c-5.699,0-9.484-1.891-10.45-2.435c-0.094-0.475-0.136-1.298-0.124-1.83
				c0-0.047,0.006-0.096,0.006-0.148c0.042-1.351,0.195-2.825,1.575-3.317c2.951-0.758,5.308-2.405,5.408-2.47
				c0.362-0.256,0.451-0.753,0.196-1.114c-0.254-0.361-0.752-0.45-1.114-0.195c-0.023,0.018-2.233,1.558-4.917,2.239
				c-0.023,0.006-0.041,0.012-0.059,0.018c-2.571,0.883-2.648,3.625-2.684,4.792c0,0.054,0,0.101-0.005,0.149
				c0,0.005,0,0.011,0,0.017c-0.006,0.308-0.012,1.89,0.302,2.684c0.06,0.154,0.166,0.284,0.309,0.373
				c0.178,0.118,4.437,2.831,11.563,2.831c7.126,0,11.386-2.718,11.563-2.831c0.137-0.089,0.248-0.219,0.308-0.373
				C32.176,29.873,32.171,28.293,32.164,27.983z"/>
		</g>
	</g>
</g>
<g>
	<circle fill="#18DD8E" cx="20.037" cy="20" r="20"/>
	<g>
		<g>
			<g>
				<g>
					<g>
						<g>
							<polygon fill="#D7004A" points="25.555,9.835 14.884,9.835 8.728,9.835 8.728,15.092 31.709,15.092 31.709,9.835 							"/>
							<path fill="#38454F" d="M16.526,10.645c0.451,0,0.82,0.365,0.82,0.81c0,0.447-0.369,0.807-0.82,0.807
								c-0.456,0-0.82-0.36-0.82-0.807C15.706,11.01,16.07,10.645,16.526,10.645z"/>
							<ellipse fill="#38454F" cx="18.989" cy="11.453" rx="0.82" ry="0.808"/>
							<ellipse fill="#38454F" cx="21.449" cy="11.453" rx="0.82" ry="0.808"/>
							<path fill="#38454F" d="M23.91,10.645c0.457,0,0.822,0.365,0.822,0.81c0,0.447-0.365,0.807-0.822,0.807
								c-0.451,0-0.818-0.36-0.818-0.807C23.092,11.01,23.459,10.645,23.91,10.645z"/>
							<path fill="#AFB6BB" d="M23.91,7.818c-0.461,0-0.883,0.158-1.232,0.413c0.221,0.165,0.404,0.367,0.543,0.603
								c0.197-0.131,0.432-0.21,0.689-0.21c0.68,0,1.232,0.544,1.232,1.212c0,0.674-0.549,1.217-1.232,1.217
								c-0.223,0-0.408,0.179-0.408,0.403c0,0.222,0.182,0.403,0.408,0.403c1.131,0,2.053-0.906,2.053-2.02
								C25.965,8.723,25.041,7.818,23.91,7.818z"/>
							<path fill="#839594" d="M22.141,8.833c-0.176,0.299-0.279,0.637-0.279,1.001h0.816C22.678,9.422,22.467,9.056,22.141,8.833z"
								/>
							<path fill="#839594" d="M19.68,8.833c-0.177,0.299-0.281,0.637-0.281,1.001h0.82C20.219,9.422,20.002,9.056,19.68,8.833z"/>
							<path fill="#AFB6BB" d="M23.221,8.833c-0.139-0.236-0.318-0.438-0.543-0.603c-0.342-0.255-0.764-0.413-1.229-0.413
								c-0.464,0-0.887,0.158-1.23,0.413c0.216,0.165,0.402,0.367,0.538,0.603c0.198-0.131,0.432-0.21,0.692-0.21
								c0.258,0,0.492,0.08,0.691,0.21c0.326,0.222,0.537,0.589,0.537,1.001c0,0.67-0.551,1.217-1.229,1.217
								c-0.227,0-0.41,0.179-0.41,0.403c0,0.222,0.182,0.403,0.41,0.403c1.131,0,2.053-0.906,2.053-2.02
								C23.502,9.47,23.396,9.133,23.221,8.833z"/>
							<path fill="#839594" d="M17.215,8.833c-0.174,0.299-0.281,0.637-0.281,1.001h0.823C17.757,9.422,17.543,9.056,17.215,8.833z"
								/>
							<path fill="#AFB6BB" d="M20.757,8.833c-0.14-0.236-0.322-0.438-0.538-0.603c-0.344-0.255-0.768-0.413-1.23-0.413
								c-0.464,0-0.887,0.158-1.231,0.413c0.22,0.165,0.398,0.367,0.539,0.603c0.196-0.131,0.437-0.21,0.692-0.21
								c0.255,0,0.491,0.08,0.691,0.21c0.322,0.222,0.539,0.589,0.539,1.001c0,0.67-0.553,1.217-1.23,1.217
								c-0.228,0-0.41,0.179-0.41,0.403c0,0.222,0.183,0.403,0.41,0.403c1.129,0,2.05-0.906,2.05-2.02
								C21.039,9.47,20.931,9.133,20.757,8.833z"/>
							<path fill="#AFB6BB" d="M18.296,8.833c-0.141-0.236-0.319-0.438-0.539-0.603c-0.344-0.255-0.77-0.413-1.231-0.413
								c-1.131,0-2.053,0.905-2.053,2.017h0.82c0-0.667,0.553-1.212,1.232-1.212c0.257,0,0.493,0.08,0.689,0.21
								c0.328,0.222,0.542,0.589,0.542,1.001c0,0.67-0.554,1.217-1.231,1.217c-0.227,0-0.41,0.179-0.41,0.403
								c0,0.222,0.184,0.403,0.41,0.403c1.131,0,2.053-0.906,2.053-2.02C18.579,9.47,18.47,9.133,18.296,8.833z"/>
							<rect x="8.728" y="15.092" fill="#FFFFFF" width="22.981" height="16.164"/>
							<ellipse fill="#18DD8E" cx="13.651" cy="19.536" rx="2.053" ry="2.021"/>
							<ellipse fill="#18DD8E" cx="20.219" cy="19.536" rx="2.05" ry="2.021"/>
							<path fill="#18DD8E" d="M26.783,17.515c1.131,0,2.053,0.907,2.053,2.022s-0.922,2.021-2.053,2.021
								c-1.133,0-2.051-0.905-2.051-2.021S25.65,17.515,26.783,17.515z"/>
							<g>
								<g>
									<path fill="#0091DA" d="M26.783,23.129c1.613,0,2.92,1.284,2.92,2.875c0,1.588-1.307,2.875-2.92,2.875
										c-1.611,0-2.918-1.287-2.918-2.875C23.865,24.413,25.172,23.129,26.783,23.129z"/>
								</g>
								<g>
									<path fill="#FFFFFF" d="M28.588,26.412H26.68c-0.1,0-0.184-0.084-0.184-0.187V24.35c0-0.1,0.084-0.182,0.184-0.182
										c0.104,0,0.188,0.082,0.188,0.182v1.694h1.721c0.1,0,0.186,0.082,0.186,0.182C28.773,26.328,28.688,26.412,28.588,26.412z"
										/>
								</g>
							</g>
							<ellipse fill="#18DD8E" cx="13.651" cy="26.003" rx="2.053" ry="2.021"/>
							<ellipse fill="#18DD8E" cx="20.219" cy="26.003" rx="2.05" ry="2.021"/>
						</g>
					</g>
				</g>
			</g>
		</g>
	</g>
</g>
</svg>
