<?xml version="1.0" encoding="utf-8"?>
<!-- Generator: Adobe Illustrator 16.0.0, SVG Export Plug-In . SVG Version: 6.00 Build 0)  -->
<!DOCTYPE svg PUBLIC "-//W3C//DTD SVG 1.1//EN" "http://www.w3.org/Graphics/SVG/1.1/DTD/svg11.dtd">
<svg version="1.1" id="Capa_1" xmlns="http://www.w3.org/2000/svg" xmlns:xlink="http://www.w3.org/1999/xlink" x="0px" y="0px"
	 width="40px" height="40px" viewBox="0 0 40 40" enable-background="new 0 0 40 40" xml:space="preserve">
<g>
	<g>
		<path fill="#40596B" d="M33.725,2.504H7.601c-0.915,0-1.661,0.75-1.661,1.667v34.208c0,0.923,0.747,1.676,1.661,1.676h26.124
			c0.912,0,1.665-0.753,1.665-1.676V4.171C35.39,3.254,34.637,2.504,33.725,2.504z"/>
		<rect x="8.143" y="4.726" fill="#FFFFFF" width="24.954" height="33.044"/>
		<path fill="#40596B" d="M26.293,0H15.03c-1,0-1.836,0.836-1.836,1.752v4.588h14.851V1.751C28.133,0.836,27.295,0,26.293,0z"/>
		<g>
			<rect x="16.866" y="10.184" fill="#4CDBC4" width="14.521" height="1.912"/>
			<rect x="16.866" y="16.938" fill="#4CDBC4" width="14.521" height="1.917"/>
			<rect x="16.866" y="23.699" fill="#4CDBC4" width="14.521" height="1.912"/>
			<rect x="16.866" y="30.455" fill="#4CDBC4" width="14.521" height="1.918"/>
		</g>
		<g>
			<rect x="9.854" y="29.121" fill="#CDD6E0" width="4.59" height="4.59"/>
			<rect x="9.854" y="22.363" fill="#CDD6E0" width="4.59" height="4.586"/>
			<rect x="9.854" y="15.607" fill="#CDD6E0" width="4.59" height="4.582"/>
			<rect x="9.854" y="8.847" fill="#CDD6E0" width="4.59" height="4.587"/>
		</g>
		<g>
			<polygon fill="#40596B" points="11.522,12.604 10.439,11.429 11.024,10.851 11.522,11.348 13.194,9.764 13.779,10.347 			"/>
			<polygon fill="#40596B" points="11.608,19.277 10.523,18.185 11.105,17.601 11.608,18.107 13.275,16.519 13.858,17.104 			"/>
		</g>
	</g>
</g>
</svg>
