<?xml version="1.0" encoding="utf-8"?>
<!-- Generator: Adobe Illustrator 16.0.0, SVG Export Plug-In . SVG Version: 6.00 Build 0)  -->
<!DOCTYPE svg PUBLIC "-//W3C//DTD SVG 1.1//EN" "http://www.w3.org/Graphics/SVG/1.1/DTD/svg11.dtd">
<svg version="1.1" id="Capa_1" xmlns="http://www.w3.org/2000/svg" xmlns:xlink="http://www.w3.org/1999/xlink" x="0px" y="0px"
	 width="300px" height="300px" viewBox="0 0 300 300" enable-background="new 0 0 300 300" xml:space="preserve">
<g id="Nuevo_símbolo_4">
	<circle fill="#4AB936" cx="150.001" cy="150" r="150"/>
	<g>
		<path fill="#FFFFFF" d="M75.759,206.537h-7.476v-3.264c-1.227,1.267-2.621,2.235-4.183,2.907
			c-1.563,0.673-3.293,1.009-5.192,1.009c-1.978,0-3.847-0.405-5.607-1.216c-1.761-0.811-3.303-1.929-4.628-3.353
			c-1.326-1.424-2.374-3.104-3.145-5.044c-0.771-1.938-1.157-4.034-1.157-6.289s0.385-4.361,1.157-6.319s1.819-3.649,3.145-5.073
			c1.325-1.424,2.867-2.541,4.628-3.353c1.76-0.81,3.629-1.216,5.607-1.216c1.78,0,3.432,0.307,4.955,0.92
			c1.522,0.613,2.878,1.493,4.064,2.64v-16.495h7.832V206.537z M67.304,187.906c-0.415-1.068-0.979-1.997-1.691-2.789
			c-0.712-0.791-1.543-1.414-2.492-1.869c-0.949-0.454-1.958-0.683-3.026-0.683c-1.068,0-2.077,0.229-3.026,0.683
			c-0.949,0.455-1.78,1.068-2.492,1.84c-0.712,0.771-1.276,1.701-1.691,2.788c-0.415,1.089-0.623,2.246-0.623,3.472
			c0,1.227,0.208,2.364,0.623,3.411c0.416,1.049,0.979,1.958,1.691,2.729c0.712,0.771,1.542,1.375,2.492,1.81
			c0.95,0.437,1.958,0.653,3.026,0.653c1.068,0,2.077-0.228,3.026-0.683c0.949-0.454,1.78-1.068,2.492-1.839
			c0.712-0.771,1.276-1.682,1.691-2.729c0.416-1.048,0.623-2.166,0.623-3.353C67.927,190.122,67.719,188.973,67.304,187.906z"/>
		<path fill="#FFFFFF" d="M99.67,176.424c1.859,0.812,3.491,1.938,4.895,3.382c1.404,1.444,2.512,3.145,3.323,5.103
			c0.811,1.958,1.216,4.085,1.216,6.379c0,2.295-0.406,4.411-1.216,6.349c-0.811,1.938-1.919,3.619-3.323,5.044
			c-1.404,1.424-3.036,2.542-4.895,3.353c-1.86,0.81-3.857,1.216-5.993,1.216c-2.136,0-4.134-0.406-5.993-1.216
			c-1.859-0.811-3.481-1.929-4.865-3.353c-1.385-1.425-2.483-3.105-3.293-5.044c-0.812-1.938-1.216-4.054-1.216-6.349
			c0-2.294,0.405-4.421,1.216-6.379c0.81-1.958,1.908-3.658,3.293-5.103c1.384-1.443,3.006-2.57,4.865-3.382
			c1.859-0.811,3.857-1.217,5.993-1.217C95.813,175.208,97.811,175.614,99.67,176.424z M96.585,199.446
			c0.91-0.415,1.71-1.009,2.403-1.779c0.692-0.771,1.236-1.691,1.632-2.76c0.395-1.067,0.593-2.255,0.593-3.56
			c0-1.306-0.198-2.512-0.593-3.62c-0.396-1.106-0.94-2.056-1.632-2.848c-0.692-0.791-1.493-1.403-2.403-1.84
			c-0.911-0.435-1.879-0.652-2.907-0.652c-1.029,0-2.008,0.218-2.937,0.652c-0.93,0.437-1.731,1.049-2.403,1.84
			c-0.673,0.792-1.207,1.741-1.602,2.848c-0.396,1.108-0.593,2.314-0.593,3.62c0,1.305,0.197,2.492,0.593,3.56
			c0.395,1.068,0.929,1.988,1.602,2.76c0.672,0.771,1.473,1.364,2.403,1.779c0.929,0.416,1.908,0.623,2.937,0.623
			C94.706,200.069,95.674,199.862,96.585,199.446z"/>
		<path fill="#FFFFFF" d="M134.975,204.341c-2.611,1.938-5.776,2.907-9.494,2.907c-2.294,0-4.411-0.415-6.349-1.246
			c-1.938-0.83-3.6-1.967-4.984-3.411c-1.385-1.444-2.473-3.135-3.263-5.073c-0.792-1.938-1.187-4.015-1.187-6.23
			c0-2.215,0.395-4.302,1.187-6.26c0.791-1.958,1.878-3.658,3.263-5.103c1.384-1.444,3.046-2.591,4.984-3.441
			c1.938-0.851,4.054-1.276,6.349-1.276c3.718,0,6.873,0.97,9.464,2.907c2.59,1.939,4.341,4.649,5.251,8.129h-8.366
			c-0.555-1.027-1.395-1.928-2.522-2.699s-2.403-1.157-3.827-1.157c-1.068,0-2.077,0.237-3.026,0.712s-1.78,1.118-2.492,1.929
			c-0.712,0.812-1.276,1.761-1.691,2.848c-0.416,1.089-0.623,2.246-0.623,3.472c0,1.187,0.208,2.313,0.623,3.382
			c0.415,1.068,0.979,2.008,1.691,2.818c0.712,0.812,1.543,1.444,2.492,1.898c0.949,0.455,1.958,0.683,3.026,0.683
			c1.463,0,2.769-0.386,3.916-1.157c1.147-0.771,1.978-1.69,2.492-2.759h8.366C139.345,199.694,137.585,202.404,134.975,204.341z"/>
		<path fill="#FFFFFF" d="M168.854,193.78c0,1.938-0.316,3.729-0.949,5.37s-1.533,3.065-2.699,4.271
			c-1.168,1.207-2.572,2.146-4.213,2.818c-1.643,0.672-3.492,1.009-5.549,1.009s-3.916-0.337-5.576-1.009
			c-1.662-0.672-3.077-1.611-4.243-2.818c-1.167-1.206-2.067-2.63-2.7-4.271c-0.633-1.642-0.95-3.432-0.95-5.37v-25.573h7.833v7.772
			h18.749v7.357h-18.749v10.858c0,0.712,0.108,1.404,0.327,2.077c0.217,0.673,0.553,1.275,1.008,1.81s1.039,0.959,1.75,1.275
			c0.713,0.317,1.563,0.475,2.551,0.475c0.951,0,1.781-0.157,2.492-0.475c0.713-0.316,1.297-0.741,1.752-1.275
			c0.453-0.534,0.791-1.137,1.008-1.81s0.326-1.365,0.326-2.077v-2.907h7.832V193.78z"/>
		<path fill="#FFFFFF" d="M244.921,190.219h-7.833v-1.542c0-0.436-0.059-0.999-0.178-1.691c-0.118-0.691-0.366-1.365-0.741-2.018
			c-0.377-0.652-0.94-1.206-1.691-1.661c-0.752-0.454-1.78-0.683-3.085-0.683c-1.78,0-3.215,0.574-4.302,1.721
			c-1.089,1.147-1.632,2.592-1.632,4.332v17.859h-7.832v-30.558h7.476v2.967c0.988-1.146,2.136-2.057,3.441-2.729
			c1.306-0.672,2.789-1.009,4.45-1.009c1.78,0,3.412,0.326,4.896,0.979c1.483,0.652,2.738,1.563,3.768,2.729
			c1.028,1.167,1.829,2.581,2.403,4.242c0.572,1.661,0.86,3.501,0.86,5.519V190.219z"/>
	</g>
	<g>
		<circle fill="#FFC61B" cx="192.922" cy="190.245" r="22.722"/>
		<path fill="#D48B07" d="M192.2,204.381l7.543,7.543c8.719-2.739,15.17-10.591,15.843-20.043l-13.725-13.725L192.2,204.381z"/>
		<rect x="189.136" y="193.59" fill="#FCD088" width="7.573" height="9.257"/>
		<rect x="192.949" y="193.59" fill="#DDAB62" width="3.762" height="9.257"/>
		<path fill="#FFEDB5" d="M201.046,185.757c0.041-0.377,0.063-0.748,0.063-1.11c0-4.79-3.665-8.674-8.187-8.674
			c-4.521,0-8.186,3.884-8.186,8.674c0,0.362,0.021,0.733,0.062,1.11c-0.794,0.206-1.172,1.428-0.843,2.735
			c0.329,1.312,1.243,2.212,2.043,2.011c0.071-0.018,0.141-0.047,0.206-0.082c1.479,2.97,3.937,5.379,6.718,5.379
			s5.239-2.409,6.719-5.379c0.066,0.035,0.133,0.064,0.207,0.082c0.8,0.201,1.714-0.699,2.042-2.011
			C202.218,187.185,201.84,185.963,201.046,185.757z"/>
		<path fill="#E8CF89" d="M201.046,185.757c0.041-0.377,0.063-0.748,0.063-1.11c0-4.781-3.651-8.658-8.16-8.674v19.825
			c2.771-0.014,5.218-2.417,6.692-5.377c0.066,0.035,0.133,0.064,0.207,0.082c0.8,0.201,1.714-0.699,2.042-2.011
			C202.218,187.185,201.84,185.963,201.046,185.757z"/>
		<g>
			<path fill="#71E2EF" d="M201.841,199.866l-3.9-1.086l-0.735-1.029c-0.131-0.192-0.381-0.265-0.596-0.173l-3.688,1.588
				l-3.664-1.587c-0.214-0.093-0.463-0.023-0.597,0.167l-0.737,1.034l-3.927,1.047c-2.031,0.407-3.545,1.94-3.545,4.012v5.35
				c3.573,2.371,7.86,3.754,12.47,3.754c3.896,0,7.563-0.987,10.761-2.724c0.587-0.363,1.157-0.734,1.709-1.104v-5.275
				C205.392,201.767,203.874,200.272,201.841,199.866z"/>
			<path fill="#71E2EF" d="M192.922,199.166l-3.664-1.587c-0.214-0.093-0.463-0.023-0.597,0.167l-0.736,1.034l-3.928,1.047
				c-2.031,0.407-3.545,1.94-3.545,4.012v5.35c3.573,2.371,7.86,3.754,12.47,3.754c0.009,0,0.018,0,0.026,0v-13.787L192.922,199.166
				z"/>
		</g>
		<g>
			<path fill="#38C6D9" d="M201.841,199.866l-3.9-1.086l-0.735-1.029c-0.131-0.192-0.381-0.265-0.596-0.173l-3.661,1.577v13.787
				c3.887-0.005,7.543-0.99,10.734-2.723c0.587-0.363,1.157-0.734,1.709-1.104v-5.276
				C205.392,201.767,203.874,200.272,201.841,199.866z"/>
			<path fill="#38C6D9" d="M196.864,203.175l-3.941-3.929l-3.941,3.929l-1.056-4.396l-1.275,0.557l1.029,12.992
				c1.684,0.4,3.438,0.613,5.243,0.613c2.252,0,4.425-0.33,6.475-0.943l-0.201-12.62l-1.255-0.599L196.864,203.175z"/>
		</g>
		<path fill="#2BA8B2" d="M199.195,199.378l-1.254-0.599l-1.077,4.396l-3.915-3.903v13.67c2.241-0.003,4.405-0.333,6.448-0.943
			L199.195,199.378z"/>
		<path fill="#FFFFFF" d="M201.955,199.649l-4.014-0.869l-5.011,11.306l-5.006-11.306l-4.033,0.869
			c-2.044,0.409-3.515,2.203-3.515,4.287v5.254c3.595,2.386,7.908,3.776,12.546,3.776c4.639,0,8.951-1.391,12.548-3.776v-5.254
			C205.47,201.852,203.999,200.058,201.955,199.649z"/>
		<path fill="#E0E2E2" d="M205.47,203.936c0-2.084-1.472-3.878-3.515-4.287l-4.015-0.869l-4.992,11.263v2.924
			c4.629-0.005,8.932-1.395,12.521-3.776V203.936z"/>
		<path fill="#494948" d="M188.319,182.671c0,0,3.559,3.404,10.826,2.181c0,0,0.705-0.178,1.901,0.905c0,0,2-2.895,0.814-7.601
			c0,0-3.672-1.185-5.394-2.257c-1.722-1.07-6.311-2.218-7.345,0.995c0,0-3.327-0.421-4.245,3.021
			c-0.919,3.442-0.079,5.841-0.079,5.841S186.522,181.6,188.319,182.671z"/>
		<path fill="#333333" d="M201.861,178.157c0,0-3.672-1.185-5.394-2.257c-0.781-0.486-2.155-0.987-3.519-1.089v9.986
			c1.63,0.349,3.692,0.476,6.196,0.055c0,0,0.705-0.179,1.901,0.905C201.046,185.757,203.046,182.863,201.861,178.157z"/>
		<path fill="#AFAFAF" d="M197.941,198.78l1.161,1.62c0.153,0.204,0.12,0.493-0.075,0.659l-1.396,1.183
			c-0.254,0.215-0.222,0.612,0.063,0.784l1.028,0.625c0.271,0.165,0.313,0.543,0.085,0.764l-5.877,5.671L197.941,198.78z"/>
		<path fill="#E0E2E2" d="M187.925,198.78l-1.161,1.62c-0.153,0.204-0.12,0.493,0.075,0.659l1.396,1.183
			c0.252,0.215,0.221,0.612-0.062,0.784l-1.029,0.625c-0.272,0.165-0.314,0.543-0.085,0.764l5.871,5.671L187.925,198.78z"/>
	</g>
	<g>
		<path fill="#FFFFFF" d="M90.416,84.021c3.607,1.444,6.583,3.338,8.929,5.682c2.344,2.346,4.094,4.997,5.249,7.955
			c1.153,2.959,1.732,5.917,1.732,8.875H92.04c0-3.247-1.282-5.953-3.842-8.118c-2.562-2.165-6.115-3.247-10.661-3.247
			c-1.877,0-3.698,0.181-5.466,0.541c-1.769,0.362-3.338,0.903-4.708,1.624c-1.372,0.722-2.454,1.624-3.247,2.706
			c-0.795,1.083-1.191,2.346-1.191,3.788c0,2.598,1.316,4.529,3.951,5.791c2.633,1.263,6.835,2.472,12.609,3.626
			c4.473,0.866,8.496,1.858,12.068,2.976c3.571,1.12,6.619,2.543,9.146,4.275c2.525,1.731,4.473,3.896,5.844,6.494
			c1.37,2.598,2.057,5.809,2.057,9.633c0,3.608-0.722,6.873-2.165,9.795c-1.444,2.922-3.518,5.412-6.224,7.467
			c-2.706,2.057-5.971,3.626-9.795,4.709c-3.825,1.082-8.117,1.623-12.879,1.623c-3.68,0-7.36-0.524-11.04-1.569
			s-6.981-2.633-9.903-4.763c-2.922-2.127-5.286-4.833-7.089-8.117c-1.805-3.283-2.706-7.198-2.706-11.743h14.287
			c0,2.237,0.504,4.167,1.515,5.79c1.01,1.624,2.309,2.977,3.896,4.059c1.586,1.082,3.355,1.894,5.303,2.435
			s3.859,0.812,5.736,0.812c2.019,0,4.04-0.179,6.061-0.541c2.019-0.36,3.824-0.956,5.412-1.786
			c1.586-0.829,2.868-1.875,3.842-3.139c0.974-1.262,1.461-2.795,1.461-4.6c0-1.153-0.271-2.235-0.812-3.247
			c-0.542-1.009-1.499-1.929-2.868-2.76c-1.372-0.829-3.193-1.605-5.466-2.327c-2.273-0.721-5.141-1.407-8.604-2.057
			s-6.873-1.461-10.228-2.435c-3.355-0.974-6.332-2.309-8.929-4.005c-2.598-1.694-4.708-3.859-6.332-6.494
			c-1.624-2.633-2.435-5.97-2.435-10.011c0-3.247,0.685-6.205,2.056-8.875c1.37-2.668,3.318-4.96,5.845-6.873
			c2.524-1.911,5.555-3.41,9.091-4.492c3.534-1.083,7.503-1.624,11.905-1.624C82.515,81.856,86.807,82.578,90.416,84.021z"/>
		<path fill="#FFFFFF" d="M161.903,84.995c4.508,2.021,8.389,4.799,11.635,8.334c3.246,3.536,5.791,7.684,7.631,12.446
			s2.76,9.849,2.76,15.261c0,5.484-0.92,10.606-2.76,15.369s-4.385,8.912-7.631,12.447c-3.246,3.536-7.127,6.314-11.635,8.334
			c-4.51,2.019-9.398,3.03-14.666,3.03c-5.34,0-10.265-1.012-14.773-3.03c-4.51-2.02-8.388-4.798-11.635-8.334
			c-3.247-3.535-5.791-7.685-7.63-12.447s-2.76-9.884-2.76-15.369c0-5.412,0.92-10.499,2.76-15.261s4.383-8.91,7.63-12.446
			c3.247-3.535,7.125-6.313,11.635-8.334c4.508-2.019,9.433-3.03,14.773-3.03C152.504,81.964,157.393,82.976,161.903,84.995z
			 M155.95,144.684c2.707-1.334,5.068-3.174,7.09-5.52c2.02-2.344,3.607-5.068,4.762-8.172c1.154-3.102,1.732-6.421,1.732-9.957
			c0-3.463-0.578-6.746-1.732-9.849c-1.154-3.102-2.742-5.826-4.762-8.171c-2.021-2.344-4.383-4.184-7.09-5.52
			c-2.705-1.334-5.611-2.002-8.712-2.002c-3.103,0-6.025,0.668-8.767,2.002c-2.743,1.336-5.124,3.176-7.143,5.52
			c-2.021,2.346-3.609,5.07-4.762,8.171c-1.155,3.103-1.732,6.386-1.732,9.849c0,3.536,0.577,6.855,1.732,9.957
			c1.153,3.104,2.741,5.828,4.762,8.172c2.019,2.345,4.4,4.185,7.143,5.52c2.741,1.336,5.664,2.002,8.767,2.002
			C150.338,146.687,153.245,146.02,155.95,144.684z"/>
		<path fill="#FFFFFF" d="M229.709,84.021c3.606,1.444,6.583,3.338,8.929,5.682c2.344,2.346,4.094,4.997,5.249,7.955
			c1.153,2.959,1.731,5.917,1.731,8.875h-14.286c0-3.247-1.282-5.953-3.842-8.118c-2.563-2.165-6.115-3.247-10.661-3.247
			c-1.877,0-3.698,0.181-5.466,0.541c-1.769,0.362-3.338,0.903-4.708,1.624c-1.371,0.722-2.454,1.624-3.247,2.706
			c-0.795,1.083-1.19,2.346-1.19,3.788c0,2.598,1.315,4.529,3.95,5.791c2.634,1.263,6.836,2.472,12.609,3.626
			c4.473,0.866,8.496,1.858,12.067,2.976c3.572,1.12,6.619,2.543,9.146,4.275c2.525,1.731,4.474,3.896,5.845,6.494
			c1.37,2.598,2.057,5.809,2.057,9.633c0,3.608-0.723,6.873-2.165,9.795c-1.444,2.922-3.518,5.412-6.223,7.467
			c-2.706,2.057-5.972,3.626-9.795,4.709c-3.825,1.082-8.118,1.623-12.88,1.623c-3.68,0-7.359-0.524-11.04-1.569
			c-3.68-1.045-6.98-2.633-9.902-4.763c-2.923-2.127-5.287-4.833-7.09-8.117c-1.804-3.283-2.705-7.198-2.705-11.743h14.286
			c0,2.237,0.504,4.167,1.516,5.79c1.009,1.624,2.308,2.977,3.896,4.059c1.587,1.082,3.355,1.894,5.304,2.435
			s3.859,0.812,5.736,0.812c2.02,0,4.04-0.179,6.061-0.541c2.02-0.36,3.824-0.956,5.412-1.786c1.586-0.829,2.868-1.875,3.842-3.139
			c0.975-1.262,1.461-2.795,1.461-4.6c0-1.153-0.271-2.235-0.812-3.247c-0.541-1.009-1.498-1.929-2.868-2.76
			c-1.371-0.829-3.192-1.605-5.466-2.327c-2.272-0.721-5.141-1.407-8.604-2.057c-3.464-0.649-6.873-1.461-10.229-2.435
			c-3.354-0.974-6.331-2.309-8.929-4.005c-2.598-1.694-4.708-3.859-6.332-6.494c-1.623-2.633-2.435-5.97-2.435-10.011
			c0-3.247,0.685-6.205,2.056-8.875c1.37-2.668,3.318-4.96,5.845-6.873c2.525-1.911,5.556-3.41,9.092-4.492
			c3.534-1.083,7.503-1.624,11.905-1.624C221.808,81.856,226.1,82.578,229.709,84.021z"/>
	</g>
	<g>
		<path fill="#FFFFFF" d="M82.684,234.474l0.158,0.705h0.056l0.176-0.705l2.309-7.077h1.865l-3.692,10.036h-1.382l-3.738-10.036
			h1.874L82.684,234.474z"/>
		<path fill="#FFFFFF" d="M92.923,237.627c-1.44,0-2.564-0.46-3.372-1.382c-0.807-0.921-1.21-2.133-1.21-3.636v-0.408
			c0-1.44,0.416-2.632,1.247-3.575c0.832-0.943,1.848-1.415,3.047-1.415c1.341,0,2.348,0.418,3.019,1.253
			c0.67,0.834,1.006,1.944,1.006,3.329v0.965h-6.418l-0.028,0.047c0,1.008,0.223,1.825,0.667,2.453
			c0.445,0.628,1.125,0.941,2.041,0.941c0.619,0,1.161-0.088,1.628-0.265c0.467-0.176,0.867-0.419,1.201-0.728l0.714,1.187
			c-0.359,0.347-0.832,0.639-1.419,0.877C94.46,237.508,93.752,237.627,92.923,237.627z M92.636,228.65
			c-0.637,0-1.164,0.245-1.582,0.737c-0.417,0.491-0.672,1.12-0.765,1.887l0.019,0.047h4.526v-0.148
			c0-0.729-0.179-1.332-0.538-1.809C93.938,228.887,93.384,228.65,92.636,228.65z"/>
		<path fill="#FFFFFF" d="M103.46,229.011l-0.937-0.056c-0.482,0-0.889,0.114-1.22,0.343c-0.331,0.229-0.586,0.551-0.766,0.965v7.17
			h-1.827v-10.036h1.633l0.176,1.466c0.285-0.52,0.636-0.924,1.053-1.215c0.417-0.291,0.898-0.437,1.442-0.437
			c0.136,0,0.266,0.012,0.39,0.033s0.226,0.045,0.306,0.069L103.46,229.011z"/>
		<path fill="#FFFFFF" d="M111.196,234.734c0-0.401-0.153-0.729-0.459-0.983c-0.306-0.253-0.886-0.476-1.739-0.667
			c-1.181-0.254-2.089-0.609-2.723-1.067c-0.634-0.457-0.951-1.069-0.951-1.836c0-0.816,0.348-1.516,1.043-2.097
			c0.696-0.581,1.597-0.872,2.704-0.872c1.137,0,2.059,0.31,2.764,0.928c0.705,0.618,1.042,1.339,1.011,2.161l-0.019,0.056h-1.744
			c0-0.433-0.19-0.825-0.571-1.178c-0.38-0.353-0.861-0.528-1.442-0.528c-0.644,0-1.124,0.145-1.442,0.436
			c-0.319,0.291-0.478,0.637-0.478,1.039c0,0.396,0.138,0.701,0.413,0.918c0.275,0.217,0.842,0.414,1.702,0.594
			c1.23,0.26,2.165,0.628,2.801,1.104c0.637,0.477,0.956,1.098,0.956,1.864c0,0.891-0.36,1.617-1.081,2.18
			c-0.721,0.563-1.662,0.844-2.824,0.844c-1.28,0-2.288-0.324-3.024-0.974s-1.085-1.406-1.048-2.272l0.019-0.056h1.744
			c0.031,0.649,0.272,1.124,0.723,1.424c0.452,0.3,0.98,0.45,1.586,0.45c0.649,0,1.158-0.138,1.525-0.413
			C111.012,235.511,111.196,235.161,111.196,234.734z"/>
		<path fill="#FFFFFF" d="M117.271,224.829h-1.827v-1.865h1.827V224.829z M117.271,237.433h-1.827v-10.036h1.827V237.433z"/>
		<path fill="#FFFFFF" d="M119.655,232.323c0-1.484,0.402-2.707,1.206-3.669c0.804-0.961,1.895-1.442,3.274-1.442
			c1.392,0,2.491,0.479,3.297,1.438c0.807,0.958,1.21,2.183,1.21,3.673v0.204c0,1.496-0.402,2.721-1.206,3.673
			c-0.804,0.952-1.898,1.428-3.284,1.428c-1.385,0-2.481-0.478-3.288-1.433c-0.807-0.955-1.21-2.178-1.21-3.668V232.323z
			 M121.482,232.527c0,1.063,0.224,1.941,0.672,2.634s1.114,1.039,1.999,1.039c0.872,0,1.534-0.347,1.985-1.039
			c0.452-0.692,0.677-1.57,0.677-2.634v-0.204c0-1.052-0.227-1.927-0.682-2.625c-0.455-0.699-1.121-1.048-1.999-1.048
			c-0.872,0-1.532,0.349-1.98,1.048c-0.448,0.698-0.672,1.573-0.672,2.625V232.527z M125.034,223.14h2.133l0.019,0.056l-2.495,2.411
			h-1.373L125.034,223.14z"/>
		<path fill="#FFFFFF" d="M132.51,227.397l0.13,1.494c0.333-0.532,0.752-0.945,1.256-1.238c0.504-0.294,1.078-0.441,1.721-0.441
			c1.082,0,1.92,0.317,2.514,0.951s0.89,1.612,0.89,2.936v6.335h-1.827v-6.298c0-0.884-0.175-1.512-0.524-1.883
			c-0.35-0.371-0.883-0.557-1.6-0.557c-0.563,0-1.04,0.113-1.433,0.339c-0.393,0.226-0.704,0.542-0.933,0.95v7.448h-1.827v-10.036
			H132.51z"/>
		<path fill="#FFFFFF" d="M145.978,232.601c0-1.614,0.344-2.916,1.034-3.905c0.689-0.989,1.655-1.484,2.898-1.484
			c0.587,0,1.108,0.108,1.563,0.325c0.455,0.217,0.843,0.532,1.164,0.946v-5.52h1.827v14.47h-1.4l-0.278-1.271
			c-0.328,0.482-0.732,0.847-1.215,1.095c-0.482,0.247-1.042,0.37-1.679,0.37c-1.225,0-2.183-0.443-2.875-1.33
			c-0.692-0.888-1.039-2.055-1.039-3.502V232.601z M147.805,232.795c0,1.015,0.207,1.826,0.621,2.435
			c0.415,0.609,1.058,0.914,1.93,0.914c0.544,0,1.001-0.124,1.372-0.371s0.674-0.594,0.909-1.039v-4.684
			c-0.235-0.414-0.539-0.744-0.913-0.988c-0.375-0.244-0.824-0.366-1.35-0.366c-0.878,0-1.526,0.362-1.943,1.085
			c-0.417,0.724-0.626,1.664-0.626,2.82V232.795z"/>
		<path fill="#FFFFFF" d="M156.764,232.323c0-1.484,0.402-2.707,1.206-3.669c0.804-0.961,1.896-1.442,3.274-1.442
			c1.391,0,2.49,0.479,3.297,1.438c0.807,0.958,1.211,2.183,1.211,3.673v0.204c0,1.496-0.402,2.721-1.206,3.673
			s-1.898,1.428-3.283,1.428c-1.386,0-2.481-0.478-3.288-1.433c-0.808-0.955-1.211-2.178-1.211-3.668V232.323z M158.591,232.527
			c0,1.063,0.225,1.941,0.673,2.634s1.114,1.039,1.999,1.039c0.871,0,1.533-0.347,1.984-1.039s0.678-1.57,0.678-2.634v-0.204
			c0-1.052-0.228-1.927-0.683-2.625c-0.454-0.699-1.12-1.048-1.998-1.048c-0.872,0-1.532,0.349-1.98,1.048
			c-0.448,0.698-0.673,1.573-0.673,2.625V232.527z"/>
		<path fill="#FFFFFF" d="M171.976,236.2c0.563,0,1.055-0.188,1.475-0.562c0.421-0.374,0.631-0.833,0.631-1.377h1.651l0.027,0.056
			c0.025,0.865-0.346,1.634-1.112,2.305c-0.768,0.671-1.657,1.006-2.672,1.006c-1.409,0-2.498-0.479-3.265-1.438
			c-0.767-0.958-1.15-2.151-1.15-3.58v-0.39c0-1.416,0.385-2.604,1.155-3.566c0.77-0.961,1.856-1.442,3.26-1.442
			c1.119,0,2.036,0.347,2.75,1.039c0.715,0.692,1.06,1.543,1.034,2.551l-0.019,0.056h-1.66c0-0.612-0.199-1.133-0.598-1.563
			c-0.399-0.43-0.901-0.645-1.508-0.645c-0.896,0-1.551,0.348-1.962,1.043s-0.616,1.538-0.616,2.527v0.39
			c0,1.008,0.202,1.858,0.607,2.551S171.067,236.2,171.976,236.2z"/>
		<path fill="#FFFFFF" d="M180.472,224.976v2.421h1.901v1.354h-1.901v6.094c0,0.47,0.097,0.801,0.292,0.992
			c0.194,0.192,0.453,0.288,0.774,0.288c0.104,0,0.223-0.014,0.353-0.042c0.13-0.027,0.237-0.057,0.324-0.088l0.251,1.252
			c-0.137,0.111-0.338,0.202-0.604,0.273s-0.528,0.106-0.788,0.106c-0.742,0-1.333-0.224-1.771-0.672
			c-0.439-0.448-0.658-1.151-0.658-2.11v-6.094h-1.596v-1.354h1.596v-2.421H180.472z"/>
		<path fill="#FFFFFF" d="M183.904,232.323c0-1.484,0.402-2.707,1.206-3.669c0.804-0.961,1.896-1.442,3.274-1.442
			c1.391,0,2.49,0.479,3.297,1.438c0.807,0.958,1.211,2.183,1.211,3.673v0.204c0,1.496-0.402,2.721-1.206,3.673
			s-1.898,1.428-3.283,1.428c-1.386,0-2.481-0.478-3.288-1.433c-0.808-0.955-1.211-2.178-1.211-3.668V232.323z M185.731,232.527
			c0,1.063,0.225,1.941,0.673,2.634s1.114,1.039,1.999,1.039c0.871,0,1.533-0.347,1.984-1.039s0.678-1.57,0.678-2.634v-0.204
			c0-1.052-0.228-1.927-0.683-2.625c-0.454-0.699-1.12-1.048-1.998-1.048c-0.872,0-1.532,0.349-1.98,1.048
			c-0.448,0.698-0.673,1.573-0.673,2.625V232.527z"/>
		<path fill="#FFFFFF" d="M199.875,229.011l-0.937-0.056c-0.482,0-0.89,0.114-1.22,0.343c-0.331,0.229-0.586,0.551-0.766,0.965v7.17
			h-1.827v-10.036h1.633l0.176,1.466c0.284-0.52,0.636-0.924,1.053-1.215c0.418-0.291,0.898-0.437,1.442-0.437
			c0.136,0,0.266,0.012,0.39,0.033s0.226,0.045,0.306,0.069L199.875,229.011z"/>
		<path fill="#FFFFFF" d="M205.755,237.627c-1.44,0-2.564-0.46-3.371-1.382c-0.808-0.921-1.211-2.133-1.211-3.636v-0.408
			c0-1.44,0.416-2.632,1.248-3.575c0.831-0.943,1.847-1.415,3.047-1.415c1.342,0,2.348,0.418,3.019,1.253
			c0.671,0.834,1.007,1.944,1.007,3.329v0.965h-6.419l-0.027,0.047c0,1.008,0.223,1.825,0.668,2.453s1.125,0.941,2.04,0.941
			c0.618,0,1.161-0.088,1.628-0.265c0.467-0.176,0.867-0.419,1.201-0.728l0.714,1.187c-0.358,0.347-0.831,0.639-1.419,0.877
			C207.292,237.508,206.584,237.627,205.755,237.627z M205.468,228.65c-0.637,0-1.164,0.245-1.582,0.737
			c-0.417,0.491-0.672,1.12-0.765,1.887l0.019,0.047h4.526v-0.148c0-0.729-0.18-1.332-0.538-1.809S206.216,228.65,205.468,228.65z"
			/>
		<path fill="#FFFFFF" d="M217.377,234.734c0-0.401-0.152-0.729-0.459-0.983c-0.306-0.253-0.886-0.476-1.739-0.667
			c-1.181-0.254-2.088-0.609-2.722-1.067c-0.634-0.457-0.951-1.069-0.951-1.836c0-0.816,0.348-1.516,1.044-2.097
			c0.695-0.581,1.597-0.872,2.703-0.872c1.138,0,2.06,0.31,2.765,0.928c0.704,0.618,1.041,1.339,1.011,2.161l-0.019,0.056h-1.744
			c0-0.433-0.189-0.825-0.57-1.178c-0.38-0.353-0.861-0.528-1.442-0.528c-0.643,0-1.124,0.145-1.442,0.436s-0.478,0.637-0.478,1.039
			c0,0.396,0.138,0.701,0.413,0.918s0.843,0.414,1.702,0.594c1.23,0.26,2.164,0.628,2.801,1.104
			c0.637,0.477,0.955,1.098,0.955,1.864c0,0.891-0.36,1.617-1.08,2.18c-0.721,0.563-1.662,0.844-2.824,0.844
			c-1.28,0-2.288-0.324-3.023-0.974c-0.736-0.649-1.086-1.406-1.049-2.272l0.019-0.056h1.744c0.03,0.649,0.271,1.124,0.724,1.424
			c0.451,0.3,0.979,0.45,1.586,0.45c0.649,0,1.157-0.138,1.525-0.413S217.377,235.161,217.377,234.734z"/>
	</g>
</g>
</svg>
