<?xml version="1.0" encoding="utf-8"?>
<!-- Generator: Adobe Illustrator 16.0.0, SVG Export Plug-In . SVG Version: 6.00 Build 0)  -->
<!DOCTYPE svg PUBLIC "-//W3C//DTD SVG 1.1//EN" "http://www.w3.org/Graphics/SVG/1.1/DTD/svg11.dtd">
<svg version="1.1" id="Capa_1" xmlns="http://www.w3.org/2000/svg" xmlns:xlink="http://www.w3.org/1999/xlink" x="0px" y="0px"
	 width="40px" height="40px" viewBox="0 0 40 40" enable-background="new 0 0 40 40" xml:space="preserve">
<g>
	<g>
		<g>
			<path id="XMLID_86_" fill="#4AB936" d="M20.002-0.001C31.046-0.001,40,8.955,40,20.001c0,11.044-8.954,20-19.998,20
				C8.954,40.001,0,31.045,0,20.001C0,8.955,8.954-0.001,20.002-0.001z"/>
		</g>
		<g>
			<defs>
				<path id="SVGID_1_" d="M20.002-0.001C31.046-0.001,40,8.955,40,20.001c0,11.044-8.954,20-19.998,20
					C8.954,40.001,0,31.045,0,20.001C0,8.955,8.954-0.001,20.002-0.001z"/>
			</defs>
			<clipPath id="SVGID_2_">
				<use xlink:href="#SVGID_1_"  overflow="visible"/>
			</clipPath>
		</g>
		<g>
			<defs>
				<path id="SVGID_3_" d="M20.002-0.001C31.046-0.001,40,8.955,40,20.001c0,11.044-8.954,20-19.998,20
					C8.954,40.001,0,31.045,0,20.001C0,8.955,8.954-0.001,20.002-0.001z"/>
			</defs>
			<clipPath id="SVGID_4_">
				<use xlink:href="#SVGID_3_"  overflow="visible"/>
			</clipPath>
		</g>
		<g>
			<defs>
				<path id="SVGID_5_" d="M20.002-0.001C31.046-0.001,40,8.955,40,20.001c0,11.044-8.954,20-19.998,20
					C8.954,40.001,0,31.045,0,20.001C0,8.955,8.954-0.001,20.002-0.001z"/>
			</defs>
			<clipPath id="SVGID_6_">
				<use xlink:href="#SVGID_5_"  overflow="visible"/>
			</clipPath>
			<path clip-path="url(#SVGID_6_)" fill="#00852F" d="M29.633,11.555l-5.287,4.197c0.315,0.035,0.628,0.064,0.938,0.11
				c1.336-0.023,2.345,0.495,3.031,1.552c-0.147,0.416-0.294,0.833-0.441,1.25c-0.452,0.882-1.075,1.58-1.771,2.275
				c-2.183,2.185-5.328,3.34-8.169,4.338c-2.828,0.992-5.73,1.798-8.666,2.443l-1.481,1.173l19.159,20.524l21.844-17.34
				L29.633,11.555z"/>
		</g>
		<g>
			<path id="XMLID_85_" fill="none" d="M20.002-0.001C31.046-0.001,40,8.955,40,20.001c0,11.044-8.954,20-19.998,20
				C8.954,40.001,0,31.045,0,20.001C0,8.955,8.954-0.001,20.002-0.001z"/>
		</g>
	</g>
	<g>
		<path fill="#FFFFFF" d="M8.233,29.686l1.608,1.61c0.288,0.286,1.129,0.466,1.158,0.466c5.088,0.044,9.992-1.957,13.592-5.558
			c3.613-3.615,5.614-8.531,5.56-13.64c0-0.002-0.184-0.818-0.47-1.104l-1.61-1.608c-0.588-0.591-1.719-0.858-2.511-0.595
			l-0.34,0.114c-0.789,0.267-1.618,1.139-1.836,1.943l-0.81,2.971c-0.216,0.808,0.076,1.955,0.665,2.544l1.073,1.073
			c-1.054,3.907-4.118,6.971-8.022,8.028l-1.075-1.075c-0.591-0.589-1.74-0.885-2.546-0.667l-2.969,0.814
			c-0.804,0.22-1.68,1.044-1.942,1.834l-0.114,0.342C7.381,27.969,7.644,29.1,8.233,29.686z"/>
	</g>
</g>
</svg>
