<?xml version="1.0" encoding="utf-8"?>
<!-- Generator: Adobe Illustrator 16.0.0, SVG Export Plug-In . SVG Version: 6.00 Build 0)  -->
<!DOCTYPE svg PUBLIC "-//W3C//DTD SVG 1.1//EN" "http://www.w3.org/Graphics/SVG/1.1/DTD/svg11.dtd">
<svg version="1.1" id="Capa_1" xmlns="http://www.w3.org/2000/svg" xmlns:xlink="http://www.w3.org/1999/xlink" x="0px" y="0px"
	 width="40px" height="40px" viewBox="0 0 40 40" enable-background="new 0 0 40 40" xml:space="preserve">
<g>
	<circle fill="#006775" cx="20" cy="19.998" r="19.998"/>
	<path fill="#055661" d="M39.548,24.257C37.596,33.258,29.592,40,20.005,40c-1.352,0-2.671-0.133-3.949-0.391l-8.939-8.938
		l5.847-2.335l8.009-2.096l4.592-15.968L39.548,24.257z"/>
	<path fill="#FEFEFE" d="M11.462,23.846c-0.306,0.131-0.683,0.608-0.941,1.028L7.22,30.14c-0.259,0.411-0.14,0.687,0.163,0.559
		l5.576-2.362c0.101,0.14,4.354,3.631,4.501,3.582l7.417-2.702c0.158,0.039,6.857,2.347,7.262,2.473
		c0.513,0.156,0.802-0.063,0.793-0.611l-0.079-5.424c-0.007-0.549,0.079-1.05-0.423-1.229c-0.753-0.269-5.063-2.086-5.246-2.021
		c-1.131,0.404-6.226,2.235-6.226,2.235c-0.793-0.591-4.215-2.877-4.361-2.98c-0.053-0.043-0.234-0.025-0.494,0.06
		c-0.584,0.196-4.045,1.875-4.636,2.129H11.462L11.462,23.846L11.462,23.846z"/>
	<g>
		<path fill="#D9DADA" d="M24.881,29.221c0.255,0.07,6.857,2.351,7.255,2.472l0.023,0.006l0.023,0.007l0.024,0.009l0.021,0.004
			l0.025,0.001l0.024,0.004l0,0l0.021,0.003l0,0l0.02,0.004l0.021,0.007h0.019h0.021l0,0H32.4h0.017l0,0h0.021h0.021h0.022h0.017
			h0.019l0.021-0.007l0,0l0.018-0.004l0.015-0.003l0,0l0.016-0.004l0,0l0.016-0.001l0.015-0.004l0,0l0.016-0.009l0,0l0.019-0.007
			l0.014-0.006l0.014-0.009l0,0l0.017-0.009l0.012-0.007l0,0l0.013-0.01l0.012-0.002l0.01-0.016l0.014-0.014l0.01-0.01l0.011-0.01
			l0.016-0.014l0,0l0.012-0.011l0.012-0.012l0.01-0.012l0,0l0.007-0.018l0.009-0.013l0.005-0.018l0.011-0.017l0.008-0.012
			l0.007-0.019l0.009-0.018l0.009-0.014l0.008-0.021l0.004-0.017l0.002-0.023l0.003-0.021l0.005-0.016l0.004-0.021l0,0l0.007-0.021
			l0,0l0.003-0.016l0.004-0.022l0.005-0.026l0.002-0.024l0,0v-0.023v-0.024v-0.023v-0.023v-0.024l-0.078-5.424
			c-0.011-0.55,0.078-1.046-0.423-1.225c-0.753-0.273-5.066-2.09-5.25-2.022l-2.296,6.816L24.881,29.221z"/>
		<path fill="#D9DADA" d="M12.959,28.336c0.101,0.136,4.175,3.488,4.483,3.582h0.018l3.498-7.28
			c-0.793-0.591-4.215-2.877-4.361-2.98l-3.634,6.672L12.959,28.336z"/>
	</g>
	<path fill="#00CC96" d="M20.968,26.239h0.238c0.076-0.314,0.404-0.892,0.559-1.19l1.795-3.672c0.825-1.641,1.593-3.264,2.406-4.891
		c0.939-1.874,1.105-3.712-0.003-5.625c-0.875-1.511-2.699-2.777-4.516-2.777c-1.357,0-2.291,0.129-3.413,0.873
		c-0.755,0.5-1.302,1.049-1.79,1.854c-1.148,1.905-0.99,3.756-0.031,5.675C16.355,16.767,20.882,25.863,20.968,26.239z"/>
	<path fill="#07B587" d="M21.032,26.239h0.174c0.076-0.314,0.404-0.892,0.559-1.19l1.795-3.672c0.825-1.641,1.593-3.264,2.406-4.891
		c0.939-1.874,1.105-3.712-0.003-5.625c-0.875-1.511-2.699-2.777-4.516-2.777c-0.143,0-0.282,0-0.415,0.003
		C21.032,15.057,21.032,14.267,21.032,26.239z"/>
	<circle fill="#E1E5E6" cx="21.085" cy="13.377" r="3.378"/>
	<path fill="#CCCCCC" d="M21.032,10.006v6.749h0.053c1.865,0,3.376-1.512,3.376-3.376c0-1.865-1.511-3.376-3.376-3.376h-0.053
		V10.006z"/>
	<path fill="#E84F4F" d="M21.085,12.146c0.68,0,1.229,0.551,1.229,1.233c0,0.676-0.548,1.229-1.229,1.229
		c-0.678,0-1.23-0.546-1.23-1.229C19.854,12.7,20.404,12.146,21.085,12.146z"/>
	<path fill="#C94545" d="M21.032,12.152v2.453h0.053c0.68,0,1.229-0.543,1.229-1.227c0-0.679-0.548-1.233-1.229-1.233h-0.053V12.152
		z"/>
</g>
</svg>
