<?xml version="1.0" encoding="utf-8"?>
<!-- Generator: Adobe Illustrator 16.0.0, SVG Export Plug-In . SVG Version: 6.00 Build 0)  -->
<!DOCTYPE svg PUBLIC "-//W3C//DTD SVG 1.1//EN" "http://www.w3.org/Graphics/SVG/1.1/DTD/svg11.dtd">
<svg version="1.1" id="Capa_1" xmlns="http://www.w3.org/2000/svg" xmlns:xlink="http://www.w3.org/1999/xlink" x="0px" y="0px"
	 width="40px" height="40px" viewBox="0 0 40 40" enable-background="new 0 0 40 40" xml:space="preserve">
<g>
	<g>
		<g>
			<defs>
				<path id="SVGID_1_" d="M20.002-0.001C31.045-0.001,40,8.956,40,20.001c0,11.043-8.955,20-19.998,20
					C8.955,40.001,0,31.044,0,20.001C0,8.956,8.955-0.001,20.002-0.001z"/>
			</defs>
			<clipPath id="SVGID_2_">
				<use xlink:href="#SVGID_1_"  overflow="visible"/>
			</clipPath>
		</g>
		<g>
			<defs>
				<path id="SVGID_3_" d="M20.002-0.001C31.045-0.001,40,8.956,40,20.001c0,11.043-8.955,20-19.998,20
					C8.955,40.001,0,31.044,0,20.001C0,8.956,8.955-0.001,20.002-0.001z"/>
			</defs>
			<clipPath id="SVGID_4_">
				<use xlink:href="#SVGID_3_"  overflow="visible"/>
			</clipPath>
		</g>
		<g>
			<defs>
				<path id="SVGID_5_" d="M20.002-0.001C31.045-0.001,40,8.956,40,20.001c0,11.043-8.955,20-19.998,20
					C8.955,40.001,0,31.044,0,20.001C0,8.956,8.955-0.001,20.002-0.001z"/>
			</defs>
			<use xlink:href="#SVGID_5_"  overflow="visible" fill="#BDE021"/>
			<clipPath id="SVGID_6_">
				<use xlink:href="#SVGID_5_"  overflow="visible"/>
			</clipPath>
			<path clip-path="url(#SVGID_6_)" fill="#39B54A" d="M29.633,11.555l-0.828,0.657c2.629,2.329,4.195,6.002,3.899,9.397
				c-0.422,4.812-3.621,8.04-7.752,9.298c-1.877,1.035-4.086,1.587-6.395,1.587c-3.474,0-6.424-2.148-8.187-5.032
				c-0.367,0.086-0.734,0.178-1.103,0.259l0.251,0.554l19.159,20.524L48.79,32.079L29.633,11.555z"/>
		</g>
	</g>
	<g>
		<g>
			<path fill="#FFFFFF" d="M20.002,6.401c-7.398,0-13.396,5.999-13.396,13.396c0,7.4,5.999,13.396,13.396,13.396
				c7.4,0,13.396-5.997,13.396-13.396C33.398,12.4,27.402,6.401,20.002,6.401z M21.013,31.126v-0.901
				c0-0.559-0.452-1.011-1.011-1.011c-0.559,0-1.011,0.453-1.011,1.011v0.901c-5.477-0.485-9.848-4.867-10.319-10.348h0.872
				c0.559,0,1.012-0.452,1.012-1.011s-0.453-1.011-1.012-1.011H8.676c0.499-5.454,4.86-9.803,10.315-10.285v0.837
				c0,0.559,0.452,1.012,1.011,1.012c0.559,0,1.011-0.453,1.011-1.012V8.472c5.456,0.482,9.817,4.831,10.313,10.285H30.46
				c-0.559,0-1.011,0.452-1.011,1.011s0.453,1.011,1.011,1.011h0.872C30.862,26.259,26.49,30.641,21.013,31.126z"/>
			<path fill="#FFFFFF" d="M26.026,13.271l-5.989,6.275c-0.011,0-0.023,0-0.035,0c-0.075,0-0.148,0.006-0.218,0.02l-5.013-3.787
				c-0.331-0.249-0.808-0.185-1.062,0.151c-0.251,0.333-0.187,0.81,0.149,1.063l5.011,3.785c0.048,0.584,0.537,1.042,1.133,1.042
				c0.628,0,1.139-0.511,1.139-1.137c0-0.03-0.004-0.06-0.006-0.088l5.989-6.275c0.288-0.307,0.278-0.783-0.027-1.075
				C26.795,12.955,26.315,12.97,26.026,13.271z"/>
		</g>
	</g>
</g>
</svg>
