<?xml version="1.0" encoding="utf-8"?>
<!-- Generator: Adobe Illustrator 16.0.0, SVG Export Plug-In . SVG Version: 6.00 Build 0)  -->
<!DOCTYPE svg PUBLIC "-//W3C//DTD SVG 1.1//EN" "http://www.w3.org/Graphics/SVG/1.1/DTD/svg11.dtd">
<svg version="1.1" id="Capa_1" xmlns="http://www.w3.org/2000/svg" xmlns:xlink="http://www.w3.org/1999/xlink" x="0px" y="0px"
	 width="40px" height="40px" viewBox="0 0 40 40" enable-background="new 0 0 40 40" xml:space="preserve">
<g>
	<circle fill="#333333" cx="19.999" cy="19.999" r="19.999"/>
</g>
<g>
	<g>
		<g>
			<path fill="#FFFFFF" d="M19.896,20.675c0.03,0,0.06,0,0.095,0c0.012,0,0.024,0,0.036,0c0.018,0,0.042,0,0.06,0
				c1.735-0.031,3.139-0.641,4.176-1.808c2.28-2.571,1.901-6.978,1.859-7.398C25.974,8.311,24.48,6.8,23.248,6.095
				c-0.918-0.527-1.99-0.811-3.187-0.834h-0.041c-0.006,0-0.018,0-0.023,0h-0.035c-0.658,0-1.95,0.106-3.188,0.811
				c-1.244,0.706-2.76,2.216-2.909,5.397c-0.042,0.42-0.42,4.827,1.86,7.398C16.757,20.034,18.16,20.644,19.896,20.675z
				 M15.447,11.616c0-0.018,0.006-0.035,0.006-0.047c0.196-4.249,3.21-4.704,4.502-4.704h0.024c0.011,0,0.029,0,0.047,0
				c1.599,0.036,4.318,0.688,4.502,4.704c0,0.017,0,0.035,0.005,0.047c0.007,0.041,0.422,4.07-1.462,6.19
				c-0.747,0.842-1.741,1.256-3.051,1.269c-0.012,0-0.018,0-0.03,0l0,0c-0.011,0-0.018,0-0.029,0
				c-1.304-0.012-2.305-0.427-3.046-1.269C15.038,15.697,15.441,11.652,15.447,11.616z"/>
			<path fill="#FFFFFF" d="M32.164,27.983c0-0.006,0-0.012,0-0.018c0-0.048-0.006-0.095-0.006-0.148
				c-0.036-1.173-0.113-3.915-2.684-4.792c-0.018-0.006-0.042-0.012-0.06-0.018c-2.672-0.681-4.893-2.222-4.917-2.24
				c-0.36-0.254-0.858-0.166-1.112,0.196c-0.255,0.361-0.166,0.859,0.194,1.113c0.102,0.071,2.459,1.712,5.408,2.471
				c1.38,0.491,1.535,1.967,1.577,3.317c0,0.053,0,0.101,0.005,0.148c0.006,0.532-0.029,1.355-0.124,1.83
				c-0.96,0.545-4.721,2.429-10.443,2.429c-5.699,0-9.484-1.891-10.45-2.435c-0.094-0.475-0.136-1.298-0.124-1.83
				c0-0.047,0.006-0.096,0.006-0.148c0.042-1.351,0.195-2.825,1.575-3.317c2.951-0.758,5.308-2.405,5.408-2.47
				c0.362-0.256,0.451-0.753,0.196-1.114c-0.254-0.361-0.752-0.45-1.114-0.195c-0.023,0.018-2.233,1.558-4.917,2.239
				c-0.023,0.006-0.041,0.012-0.059,0.018c-2.571,0.883-2.648,3.625-2.684,4.792c0,0.054,0,0.101-0.005,0.149
				c0,0.005,0,0.011,0,0.017c-0.006,0.308-0.012,1.89,0.302,2.684c0.06,0.154,0.166,0.284,0.309,0.373
				c0.178,0.118,4.437,2.831,11.563,2.831c7.126,0,11.386-2.718,11.563-2.831c0.137-0.089,0.248-0.219,0.308-0.373
				C32.176,29.873,32.171,28.293,32.164,27.983z"/>
		</g>
	</g>
</g>
</svg>
