<?xml version="1.0" encoding="utf-8"?>
<!-- Generator: Adobe Illustrator 16.0.0, SVG Export Plug-In . SVG Version: 6.00 Build 0)  -->
<!DOCTYPE svg PUBLIC "-//W3C//DTD SVG 1.1//EN" "http://www.w3.org/Graphics/SVG/1.1/DTD/svg11.dtd">
<svg version="1.1" id="Capa_1" xmlns="http://www.w3.org/2000/svg" xmlns:xlink="http://www.w3.org/1999/xlink" x="0px" y="0px"
	 width="40px" height="40px" viewBox="0 0 40 40" enable-background="new 0 0 40 40" xml:space="preserve">
<symbol  id="Nuevo_símbolo_11" viewBox="-62 -62 124 124">
	<path fill="#FFFFFF" d="M62,0c0,34.241-27.758,62-62,62S-62,34.241-62,0s27.758-62,62-62S62-34.241,62,0z"/>
	<g>
		<g>
			<path fill="#BDE021" d="M-28.667,23.334c0-2.945-2.388-5.333-5.333-5.333s-5.333,2.388-5.333,5.333s2.388,5.333,5.333,5.333
				S-28.667,26.279-28.667,23.334z"/>
		</g>
		<g>
			<path fill="#ABABAB" d="M30.666,20h-52c-1.657,0-3,1.343-3,3s1.343,3,3,3h52c1.657,0,3-1.343,3-3S32.323,20,30.666,20z"/>
		</g>
	</g>
	<g>
		<g>
			<path fill="#14A495" d="M-28.667,8.334c0-2.945-2.388-5.333-5.333-5.333s-5.333,2.388-5.333,5.333s2.388,5.333,5.333,5.333
				S-28.667,11.279-28.667,8.334z"/>
		</g>
		<g>
			<path fill="#ABABAB" d="M30.666,5h-52c-1.657,0-3,1.343-3,3s1.343,3,3,3h52c1.657,0,3-1.343,3-3S32.323,5,30.666,5z"/>
		</g>
	</g>
	<g>
		<g>
			<path fill="#14A495" d="M-28.667-6.666c0-2.945-2.388-5.333-5.333-5.333s-5.333,2.388-5.333,5.333S-36.945-1.333-34-1.333
				S-28.667-3.721-28.667-6.666z"/>
		</g>
		<g>
			<path fill="#ABABAB" d="M30.666-10h-52c-1.657,0-3,1.343-3,3s1.343,3,3,3h52c1.657,0,3-1.343,3-3S32.323-10,30.666-10z"/>
		</g>
	</g>
	<g>
		<g>
			<path fill="#14A495" d="M-28.667-21.666c0-2.945-2.388-5.333-5.333-5.333s-5.333,2.388-5.333,5.333s2.388,5.333,5.333,5.333
				S-28.667-18.721-28.667-21.666z"/>
		</g>
		<g>
			<path fill="#ABABAB" d="M30.666-25h-52c-1.657,0-3,1.343-3,3s1.343,3,3,3h52c1.657,0,3-1.343,3-3S32.323-25,30.666-25z"/>
		</g>
	</g>
	<polygon display="none" fill="none" points="-62,62 62,62 62,-62 -62,-62 	"/>
</symbol>
<use xlink:href="#Nuevo_símbolo_11"  width="124" height="124" x="-62" y="-62" transform="matrix(0.3226 0 0 -0.3226 20.1499 20)" overflow="visible"/>
</svg>
